<svg width="1600" height="420" viewBox="0 0 1600 420" fill="none" xmlns="http://www.w3.org/2000/svg">
  <defs>
    <linearGradient id="bg" x1="20" y1="20" x2="1580" y2="400" gradientUnits="userSpaceOnUse">
      <stop stop-color="#102638"/>
      <stop offset="0.5" stop-color="#0D1E2E"/>
      <stop offset="1" stop-color="#0B1826"/>
    </linearGradient>
    <linearGradient id="chip1" x1="120" y1="120" x2="320" y2="210" gradientUnits="userSpaceOnUse">
      <stop stop-color="#20B28A"/>
      <stop offset="1" stop-color="#1AA4C0"/>
    </linearGradient>
    <linearGradient id="chip2" x1="1040" y1="140" x2="1360" y2="250" gradientUnits="userSpaceOnUse">
      <stop stop-color="#5B8EF2"/>
      <stop offset="1" stop-color="#20B28A"/>
    </linearGradient>
  </defs>

  <rect x="1" y="1" width="1598" height="418" rx="28" fill="url(#bg)" stroke="#25465E"/>

  <rect x="78" y="92" width="344" height="84" rx="20" fill="#133148" stroke="#315A77"/>
  <rect x="110" y="125" width="204" height="14" rx="7" fill="#3B6A8A"/>
  <rect x="334" y="123" width="58" height="18" rx="9" fill="url(#chip1)"/>

  <rect x="206" y="228" width="412" height="102" rx="24" fill="#14344A" stroke="#35617F"/>
  <rect x="242" y="266" width="248" height="14" rx="7" fill="#3C6A8B"/>
  <rect x="242" y="292" width="300" height="14" rx="7" fill="#3C6A8B"/>

  <rect x="724" y="90" width="774" height="260" rx="26" fill="#10293D" stroke="#305874"/>
  <rect x="770" y="132" width="236" height="16" rx="8" fill="#3E6D8E"/>
  <rect x="770" y="164" width="338" height="16" rx="8" fill="#3E6D8E"/>
  <rect x="770" y="196" width="280" height="16" rx="8" fill="#3E6D8E"/>
  <rect x="770" y="228" width="364" height="16" rx="8" fill="#3E6D8E"/>

  <rect x="1180" y="126" width="272" height="186" rx="20" fill="#143149" stroke="#3A6788"/>
  <rect x="1218" y="170" width="148" height="64" rx="14" fill="url(#chip2)"/>
  <rect x="1218" y="252" width="198" height="14" rx="7" fill="#3D6C8D"/>

  <circle cx="624" cy="126" r="12" fill="#20B28A"/>
  <circle cx="658" cy="144" r="6" fill="#5B8EF2"/>
  <circle cx="1458" cy="72" r="8" fill="#20B28A"/>
  <circle cx="150" cy="354" r="10" fill="#5B8EF2"/>
</svg>
